<?xml version="1.0" encoding="UTF-8"?>
<!DOCTYPE svg PUBLIC "-//W3C//DTD SVG 1.1//EN" "http://www.w3.org/Graphics/SVG/1.1/DTD/svg11.dtd">
<!-- Creator: CorelDRAW 2021 (64-Bit) -->
<svg xmlns="http://www.w3.org/2000/svg" xml:space="preserve" width="106.571mm" height="42.4955mm" version="1.1" style="shape-rendering:geometricPrecision; text-rendering:geometricPrecision; image-rendering:optimizeQuality; fill-rule:evenodd; clip-rule:evenodd"
viewBox="0 0 10642.82 4243.87"
 xmlns:xlink="http://www.w3.org/1999/xlink"
 xmlns:xodm="http://www.corel.com/coreldraw/odm/2003">
 <defs>
  <style type="text/css">
   <![CDATA[
    .fil1 {fill:#2B2A29}
    .fil0 {fill:#E31E24}
    .fil2 {fill:#2F2B29;fill-rule:nonzero}
   ]]>
  </style>
 </defs>
 <g id="Layer_x0020_1">
  <metadata id="CorelCorpID_0Corel-Layer"/>
  <g id="_2721373976368">
   <path class="fil0" d="M1317.68 3358.52c3488.27,-542.81 6524.07,-274.17 9177.41,680.2 -2931.2,-793.51 -5943.85,-786.41 -9047.83,118.77 -43.2,-266.31 -86.38,-532.66 -129.58,-798.97zm-282.36 -1511.2l-849.17 1052.54 765.44 -1530.92 281.08 101.64 1010.65 -873.09 -914.97 1405.33 -293.03 -155.5z"/>
   <path class="fil1" d="M799.44 3401.71c232.56,0 421.08,188.53 421.08,421.08 0,232.54 -188.52,421.09 -421.08,421.09 -232.56,0 -421.08,-188.55 -421.08,-421.09 0,-232.55 188.52,-421.08 421.08,-421.08zm388.22 -2755.05c232.58,0 449.49,66.88 632.64,182.42l-387.28 350.34c-76.35,-28.61 -159.01,-44.31 -245.36,-44.31 -386.16,0 -699.19,313.03 -699.19,699.19 0,70.13 10.39,137.84 29.57,201.7l-273.35 520.3c-153.42,-200.09 -244.68,-450.38 -244.68,-722 0,-655.92 531.73,-1187.64 1187.66,-1187.64zm907.49 421.58c174.77,206.8 280.18,474.12 280.18,766.06 0,655.93 -531.73,1187.66 -1187.66,1187.66 -276.36,0 -530.7,-94.38 -732.47,-252.71l278.44 -403.25c122.16,104.43 280.73,167.5 454.03,167.5 386.16,0 699.19,-313.01 699.19,-699.19 0,-128.54 -34.69,-248.97 -95.22,-352.45l303.51 -413.62zm7447.69 1478.44l2.93 0 0 373.08 -740.42 0 0 -373.08c46.24,0 83.7,-37.46 83.7,-83.7l313.41 -1721.75 950.16 0 362.04 1721.75c0,46.24 37.46,83.7 83.7,83.7l0 373.08 -844.66 0 0 -373.08c46.22,0 83.68,-37.46 83.68,-83.7l0 -109.5 -378.2 1.36 0 108.15c0,46.24 37.46,83.7 83.68,83.7zm-1938.76 -1833.76l285.08 0c210.21,0 667.27,107.27 667.27,317.42l0 472.92 -628.39 0 0 -191.09c0,-83.74 -68.51,-152.25 -152.25,-152.25l0 0c-83.74,0 -152.25,68.51 -152.25,152.25l0 1062.41c0,83.75 68.51,152.24 152.25,152.24l0 0c83.74,0 152.25,-68.49 152.25,-152.24l0 -255.87 -116.63 0 0 -421.08 116.63 0 395.17 0 233.22 0 0 952.28c0,235.74 -460.7,310.95 -631.65,310.95l-320.69 0c-349.14,0 -634.83,-285.66 -634.83,-634.83l0 -978.27c0,-349.16 285.67,-634.83 634.83,-634.83zm-1807.38 893.98l446.99 0 0 421.1 -446.99 0 0 440.5 145.76 0c80.17,0 145.73,-65.56 145.73,-145.75l0 -171.66 615.45 0 0 768.67 -880.35 0 -285.71 0 -484.12 0 0 -373.08c46.22,0 83.68,-37.46 83.68,-83.7l0 -1267.37c0,-46.22 -37.46,-83.68 -83.68,-83.68l0 -373.09 691.41 0 78.42 0 880.35 0 0 719.08 -615.45 0 0 -119.85c0,-80.19 -65.56,-145.75 -145.73,-145.75l-145.76 0 0 414.6zm-2528.11 939.77l0 373.08 -666.08 0 0 -373.08c46.22,0 83.68,-37.46 83.68,-83.7l0 -1258.45c0,-46.24 -37.46,-83.7 -83.68,-83.7l11.96 -8.91 -11.96 0 0 -373.09 666.08 0 208.91 0 239.7 958.79 213.77 -958.79 861.18 0 0 373.09 -10.71 0 10.71 8.91c-46.22,0 -83.68,37.46 -83.68,83.7l0 1258.45c0,46.24 37.46,83.7 83.68,83.7l0 373.08 -769.82 0 0 -373.08c46.22,0 83.67,-37.46 83.67,-83.7l0 -791.29 -336.96 1250.29 -265.61 0 -310.96 -1328.04 -7.55 869.05c0,46.24 37.46,83.7 83.68,83.7zm6479.03 -563.8l-129.58 -788.2 -113.35 788.2 242.92 0z"/>
   <path class="fil2" d="M10346.59 0c49.75,0 98.3,12.73 145.77,38.35 47.34,25.49 84.35,62.1 110.76,109.56 26.42,47.61 39.7,97.23 39.7,148.72 0,51.09 -13,100.31 -39.16,147.38 -26.02,47.2 -62.49,83.81 -109.56,109.83 -47.07,26.15 -96.28,39.15 -147.51,39.15 -51.36,0 -100.58,-13 -147.64,-39.15 -47.08,-26.03 -83.69,-62.64 -109.83,-109.83 -26.15,-47.08 -39.29,-96.29 -39.29,-147.38 0,-51.49 13.27,-101.11 39.83,-148.72 26.68,-47.47 63.69,-84.08 111.03,-109.56 47.48,-25.62 96.02,-38.35 145.9,-38.35zm0 49.08c-41.7,0 -82.34,10.73 -121.77,32.05 -39.43,21.32 -70.27,51.89 -92.53,91.6 -22.26,39.69 -33.4,80.99 -33.4,123.9 0,42.78 11,83.68 32.86,122.84 21.86,39.17 52.43,69.74 91.73,91.6 39.3,21.85 80.33,32.86 123.11,32.86 42.64,0 83.69,-11.01 122.98,-32.86 39.29,-21.86 69.87,-52.43 91.59,-91.6 21.73,-39.16 32.6,-80.05 32.6,-122.84 0,-42.91 -11.14,-84.22 -33.27,-123.9 -22.12,-39.71 -52.97,-70.28 -92.53,-91.6 -39.57,-21.32 -80.06,-32.05 -121.37,-32.05zm-130.22 411.15l0 -318.62 109.7 0c37.55,0 64.63,2.96 81.39,8.86 16.91,5.89 30.18,16.08 40.24,30.84 9.93,14.62 14.88,30.17 14.88,46.67 0,23.2 -8.31,43.58 -25.07,60.75 -16.63,17.3 -38.76,26.95 -66.38,29.1 11.25,4.69 20.38,10.32 27.08,16.89 12.87,12.47 28.56,33.54 47.2,63.17l38.9 62.36 -62.5 0 -28.42 -50.15c-22.26,-39.56 -40.37,-64.37 -54.05,-74.29 -9.39,-7.24 -23.07,-10.87 -41.16,-10.73l-30.31 0 0 135.17 -51.5 0zm51.5 -179.43l62.5 0c29.9,0 50.28,-4.42 61.15,-13.27 10.86,-8.85 16.36,-20.65 16.36,-35.13 0,-9.39 -2.68,-17.84 -7.91,-25.22 -5.23,-7.5 -12.47,-13 -21.73,-16.62 -9.39,-3.63 -26.55,-5.5 -51.76,-5.5l-58.6 0 0 95.74z"/>
  </g>
 </g>
</svg>
